<?xml version="1.0" encoding="UTF-8" standalone="no"?>
<svg
   width="280"
   height="279.4"
   viewBox="340 140 280 279.4"
   xml:space="preserve"
   version="1.1"
   id="svg1"
   sodipodi:docname="favicon.svg"
   inkscape:version="1.4 (e7c3feb1, 2024-10-09)"
   xmlns:inkscape="http://www.inkscape.org/namespaces/inkscape"
   xmlns:sodipodi="http://sodipodi.sourceforge.net/DTD/sodipodi-0.dtd"
   xmlns="http://www.w3.org/2000/svg"
   xmlns:svg="http://www.w3.org/2000/svg"><defs
     id="defs1" /><sodipodi:namedview
     id="namedview1"
     pagecolor="#ffffff"
     bordercolor="#000000"
     borderopacity="0.25"
     inkscape:showpageshadow="2"
     inkscape:pageopacity="0.0"
     inkscape:pagecheckerboard="0"
     inkscape:deskcolor="#d1d1d1"
     inkscape:zoom="0.44181595"
     inkscape:cx="324.79588"
     inkscape:cy="252.36753"
     inkscape:window-width="1264"
     inkscape:window-height="818"
     inkscape:window-x="221"
     inkscape:window-y="34"
     inkscape:window-maximized="0"
     inkscape:current-layer="svg1" /><path
     d="M620 306v-52l-31-5-10-24 18-25-36-37-26 18c-8-4-16-8-24-10l-5-31h-52l-5 32c-9 2-16 5-24 9l-25-18-37 37 18 25c-4 8-7 16-9 25l-32 4v52l32 5c2 9 5 16 9 24l-18 26 36 36 26-18c8 4 16 7 25 9l5 31h51l6-31c8-2 16-6 23-10l27 19 36-37-19-26c4-7 8-15 10-24l31-4zm-140 28a54 54 0 1 1 54-54c0 30-24 54-54 54z"
     id="path1"
     style="fill:#ffffff" /></svg>
