<?xml version="1.0" encoding="UTF-8" standalone="no"?>
<svg
   width="89.011108"
   height="88.851089"
   fill="#ffffff"
   version="1.1"
   id="svg1"
   sodipodi:docname="kitlogo_wide_opt.svg"
   inkscape:version="1.4 (e7c3feb1, 2024-10-09)"
   xmlns:inkscape="http://www.inkscape.org/namespaces/inkscape"
   xmlns:sodipodi="http://sodipodi.sourceforge.net/DTD/sodipodi-0.dtd"
   xmlns="http://www.w3.org/2000/svg"
   xmlns:svg="http://www.w3.org/2000/svg">
  <defs
     id="defs1" />
  <sodipodi:namedview
     id="namedview1"
     pagecolor="#ffffff"
     bordercolor="#000000"
     borderopacity="0.25"
     inkscape:showpageshadow="2"
     inkscape:pageopacity="0.0"
     inkscape:pagecheckerboard="0"
     inkscape:deskcolor="#d1d1d1"
     inkscape:zoom="3.5879791"
     inkscape:cx="57.692644"
     inkscape:cy="32.74824"
     inkscape:window-width="1200"
     inkscape:window-height="1186"
     inkscape:window-x="244"
     inkscape:window-y="31"
     inkscape:window-maximized="0"
     inkscape:current-layer="svg1" />
  <path
     d="m 79.321111,56.861093 h 6.16 c 0.56,0 1.12,-0.03 1.67,0.07 1.26,0.23 1.85,0.94 1.84,2.1 -0.01,1.07 -0.75,1.87 -1.96,2 -0.8,0.08 -1.6,0.01 -2.4,0.01 h -5.23 v 5.52 h 6.23 c 0.56,0 1.14,-0.05 1.67,0.1 0.97,0.27 1.7,0.78 1.7,2 0,1.2 -0.68,1.8 -1.68,1.98 -0.97,0.18 -1.98,0.1 -2.98,0.1 h -5 c -0.77,7.43 -1.08,7.75 -8.4,8.43 l -0.01,6.14 c 0,0.63 0.01,1.3 -0.15,1.9 -0.27,1 -0.87,1.65 -2.05,1.6 -1.13,-0.04 -1.64,-0.73 -1.9,-1.66 -0.14,-0.5 -0.12,-1.02 -0.12,-1.54 v -6.41 h -5.5 l -0.01,7.07 c -0.01,1.6 -0.8,2.52 -2.07,2.53 -1.33,0.01 -2.14,-0.96 -2.14,-2.6 l 0.02,-6.1 c 0,-0.27 -0.02,-0.55 -0.04,-0.9 h -5.47 v 6.25 c -0.01,0.63 0,1.3 -0.18,1.9 -0.27,0.88 -0.84,1.5 -1.9,1.5 -1.06,0 -1.65,-0.56 -1.94,-1.46 -0.17,-0.5 -0.18,-1.1 -0.18,-1.65 v -6.54 h -5.5 l -0.01,7.1 c -0.02,1.63 -0.87,2.55 -2.23,2.5 -1.22,-0.04 -2,-1.05 -2,-2.63 l 0.04,-5.74 v -1.23 h -5.52 v 6.2 c 0,0.52 0.02,1.04 -0.07,1.55 -0.24,1.3 -1.02,1.92 -2.2,1.87 -1.02,-0.05 -1.84,-0.86 -1.9,-2.07 -0.08,-1.27 -0.01,-2.55 -0.01,-3.83 v -3.7 h -5.53 l -0.01,6.3 c -0.01,0.63 -0.01,1.3 -0.2,1.88 -0.28,0.9 -0.9,1.44 -1.96,1.42 -1.07,-0.02 -1.62,-0.64 -1.9,-1.52 -0.17,-0.55 -0.15,-1.18 -0.15,-1.77 l -0.01,-6.43 c -2.43,-0.01 -4.8,0.18 -6.68,-1.7 -1.8399998,-1.86 -1.6399998,-4.2 -1.6399998,-6.6 h -6.2 c -0.44,0 -0.88,0.05 -1.32,0 -1.49999999,-0.15 -2.29999999,-0.96 -2.25999999,-2.24 0.04,-1.14 0.97999999,-1.95 2.39999999,-1.97 2,-0.03 4,0 6,0.01 h 1.2 c 0.05,-0.3 0.1,-0.5 0.1,-0.68 v -4.92 h -5.04 c -0.68,0 -1.36,0.04 -2.04,0.03 -1.66,-0.03 -2.62999999,-0.83 -2.62999999,-2.13 0,-1.28 0.99999999,-2.1 2.63999999,-2.12 l 5.87,0.02 c 0.35,0 0.7,-0.04 1.12,-0.07 v -5.43 h -6.1 c -0.48,0 -0.96,0.04 -1.44,-0.01 -1.35999999,-0.15 -2.11999999,-0.94 -2.09999999,-2.12 0.02,-1.13 0.88,-2 2.19999999,-2.03 2,-0.05 4,-0.01 6,0 h 1.4 v -5.5 c -2.2,0 -4.37,0.01 -6.55,-0.01 -0.55,-0.01 -1.13,-0.02 -1.64,-0.2 -0.87999999,-0.3 -1.45999999,-0.9 -1.42999999,-1.95 0.03,-1.07 0.64,-1.62 1.52999999,-1.88 0.6,-0.18 1.26,-0.16 1.9,-0.16 l 6.25,-0.01 v -5.5 h -6.13 c -0.48,0 -0.96,0.03 -1.44,-0.02 -1.33999999,-0.14 -2.09999999,-0.95 -2.09999999,-2.13 0.02,-1.13 0.9,-1.98 2.21999999,-2 2.12,-0.04 4.24,-0.01 6.35,0 h 1.05 v -5.5 c -2.16,0 -4.3,0.02 -6.45,-0.01 -0.63,-0.01 -1.3,-0.04 -1.87,-0.25 -0.77999999,-0.28 -1.29999999,-0.83 -1.29999999,-1.8 -0.02,-1 0.5,-1.6 1.31999999,-1.9 0.58,-0.2 1.25,-0.24 1.88,-0.25 l 6.57,-0.01 c 0.02,-2.38 -0.2,-4.72 1.6399998,-6.58 1.85,-1.8700004 4.18,-1.7200004 6.68,-1.7000004 v -6.4 c 0,-0.48 -0.03,-0.96 0.05,-1.43 0.2,-1.30000004 0.96,-1.97000004 2.14,-1.94000004 1.1,0.02 1.94,0.83 2,2.10000004 0.07,1.6 0.01,3.2 0.01,4.8 v 2.76 h 5.54 l 0.01,-6.24 c 0,-0.63 -0.02,-1.3 0.15,-1.9 0.25,-0.90000004 0.8,-1.50000004 1.87,-1.53000004 1.13,-0.03 1.73,0.56 2.03,1.50000004 0.17,0.55 0.17,1.18 0.17,1.77 l 0.01,6.3 h 5.5 v -6.2 c 0,-0.36 -0.04,-0.72 -0.01,-1.07 0.12,-1.50000004 0.9,-2.30000004 2.2,-2.28000004 1.17,0.03 1.97,0.94 2,2.36000004 v 6.22 c 0,0.3 0.03,0.62 0.05,0.97 0.25,0.03 0.44,0.08 0.63,0.08 h 4.83 v -6.35 c 0,-0.55 -0.03,-1.13 0.12,-1.66 0.28,-1.00000004 0.85,-1.66000004 2.04,-1.64000004 1.13,0.02 1.67,0.67 1.93,1.62000004 0.13,0.5 0.13,1.02 0.14,1.54 v 6.42 h 5.52 v -6.1 c 0,-0.48 -0.03,-0.96 0.02,-1.43 0.15,-1.35000004 0.95,-2.06000004 2.2,-2.02000004 1.08,0.03 1.92,0.88 1.95,2.14000004 0.05,2.03 0.01,4.07 0.01,6.1 v 1.3 h 5.5 l 0.01,-6.4 c 0.01,-0.63 0.04,-1.3 0.25,-1.87 0.3,-0.84000004 0.93,-1.30000004 1.94,-1.30000004 0.96,0.02 1.52,0.53 1.8,1.30000004 0.2,0.58 0.24,1.25 0.24,1.87 l 0.01,6.55 c 2.43,0 4.77,-0.2 6.63,1.6600004 1.86,1.86 1.67,4.2 1.66,6.62 h 6.53 c 0.63,0.01 1.3,0.03 1.88,0.24 0.84,0.3 1.35,0.86 1.35,1.88 0,1.02 -0.52,1.6 -1.35,1.88 -0.62,0.2 -1.33,0.2 -2,0.22 l -6.27,0.01 v 5.5 h 6.07 c 0.52,0 1.04,-0.04 1.56,0.02 1.2,0.14 1.95,0.93 1.96,2 0.02,1.2 -0.66,2.03 -1.95,2.1 -1.8,0.1 -3.6,0.03 -5.4,0.04 h -2.23 v 5.52 l 6.35,0.01 c 0.63,0.01 1.3,0.02 1.88,0.22 0.83,0.3 1.36,0.86 1.36,1.88 0,1 -0.5,1.6 -1.35,1.88 -0.55,0.2 -1.17,0.2 -1.76,0.22 l -6.5,0.01 v 5.5 h 6.2 c 0.48,0 0.96,-0.03 1.44,0.03 1.25,0.17 1.96,0.97 1.95,2.13 -0.02,1.1 -0.72,1.9 -1.97,1.97 -1.7,0.1 -3.43,0.02 -5.15,0.03 -2.55,0 -2.55,0.01 -2.55,2.5 v 3.04 z m -37.05,-34.86 c 0.24,0 0.5,0.05 0.72,-0.01 0.5,-0.13 0.97,-0.3 1.45,-0.47 -0.4,-0.32 -0.76,-0.78 -1.22,-0.95 -7.08,-2.66 -14.97,-0.76 -20.1,4.76 -1.23,1.32 -1.9,2.8 -1.8,4.65 0.1,1.5 -0.52,2.14 -2,2.4 -0.351786,0.06983 -0.671243,0.252373 -0.91,0.52 -0.8,0.94 -1.6,1.9 -2.3,2.9 -0.6,0.85 -0.52,1.72 0.32,2.44 0.599188,0.52308 1.189277,1.056493 1.77,1.6 1.67,1.55 2.02,1.6 3.62,-0.05 1.04,-1.08 2.8,-1.82 2.25,-3.86 -0.03,-0.13 0.2,-0.33 0.3,-0.5 1.3,-1.7 3.93,-1.83 5.6,-0.2 l 10.48,10.37 c 0.32,0.32 0.53,0.88 0.57,1.35 0.1,1.45 0.54,2.73 1.55,3.8 1.3,1.35 2.55,2.77 3.92,4.04 4.3,3.95 8.57,7.9 12.1,12.58 0.2,0.25 0.42,0.48 0.65,0.7 1.25,1.23 2.62,1.3 3.9,0.1 1.25,-1.17 2.5,-2.36 3.66,-3.62 1.88,-2.06 1.77,-3.3 -0.3,-5.14 -0.27,-0.24 -0.56,-0.45 -0.85,-0.67 -3.34,-2.56 -6.35,-5.45 -9.13,-8.6 -2.1,-2.4 -4.47,-4.55 -6.8,-6.73 -1.06,-1 -2.38,-1.57 -3.92,-1.54 -0.4,0.01 -0.9,-0.3 -1.2,-0.6 l -6.7,-6.68 c -1.54,-1.57 -3.07,-3.15 -4.5,-4.8 -1.38,-1.58 -1.25,-3.02 0.3,-4.4 2.43,-2.17 5.23,-3.47 8.57,-3.4 z m 3.92,18.16 c 0.48,0.42 0.6,0.56 0.77,0.66 1.9,1.3 3.88,2.5 5.66,3.92 0.9,0.74 1.35,0.78 2.06,-0.12 3.1,-3.92 7,-6.54 11.98,-7.53 2.13,-0.42 3.97,-1.62 5.6,-3.1 1.48,-1.34 1.73,-2.96 1.25,-4.8 -0.22,-0.87 -0.62,-1.07 -1.46,-0.66 -1.67,0.82 -3.38,1.56 -5.14,2.37 l -2.6,-5.64 5.13,-2.42 c 1,-0.44 0.98,-0.96 0.4,-1.73 -0.77,-1 -1.78,-1.57 -3.02,-1.75 -3.28,-0.47 -7.66,1.84 -9.06,4.85 -0.6,1.26 -1.2,2.54 -1.54,3.88 -0.66,2.5 -1.97,4.62 -3.72,6.46 -1.6,1.67 -3.33,3.2 -5.03,4.78 -0.33,0.3 -0.78,0.5 -1.27,0.82 z m -16.76,29 c 1.43,0.05 2.63,-0.7 3.65,-1.77 l 11.07,-11.76 c 0.7,-0.74 0.75,-1.2 -0.04,-1.92 -1.78,-1.63 -3.25,-3.52 -3.95,-5.9 -0.36,-1.2 -0.47,-1.24 -1.43,-0.36 l -13.73,12.7 c -0.97,0.9 -1.43,2 -1.45,3.3 -0.04,3.3 2.43,5.76 5.87,5.74 z m 35.7,-35.36 -4.37,2.08 c -0.16,0.07 -0.64,-0.23 -0.77,-0.47 l -1.4,-2.78 c -0.3,-0.57 -0.1,-0.86 0.43,-1.1 l 3.36,-1.57 c 0.26,-0.1 0.86,0.08 1,0.3 0.62,1.1 1.13,2.25 1.75,3.54 z m -33.93,29.9 c -0.03,1.1 -1,2.02 -2.14,1.96 -1.08,-0.05 -1.95,-1 -1.92,-2.05 0.03,-1.1 1.06,-2.05 2.13,-2 1.05,0.06 1.96,1.03 1.93,2.08 z"
     id="path1"
     sodipodi:nodetypes="cscccsccscscsccccccsccccccccccscsccccccccscccsccccccccccscccccscscsccccscccccccccccccsccccccccccccccscccscccccccccscccscscsccccccscccsccccccccscccsccccsccccccccsccccsccccscccccccccccccccccccccccccsccccccccccccccccccccccccccccccccccccccccccccccccccccc" />
</svg>
